<svg height="48px" version="1.1" viewBox="0 0 48 48" width="48px" xmlns="http://www.w3.org/2000/svg"
    xmlns:xlink="http://www.w3.org/1999/xlink">
    <g fill="none" fill-rule="evenodd" id="Page-1" stroke="currentColor" stroke-width="2"
        stroke-linejoin="round" lass="icon icon-tabler icons-tabler-outline icon-tabler-brand-rss">
        <g id="Artboard-Copy" transform="translate(-347.000000, -69.000000)">
            <path
                d="M356,102.9087 C356,105.1677 357.832,106.9997 360.09,106.9997 C362.35,106.9997 364.182,105.1677 364.182,102.9087 C364.182,100.6497 362.35,98.8177 360.09,98.8177 C357.832,98.8177 356,100.6497 356,102.9087 L356,102.9087 Z M375.076,106.9997 L375.09,106.3197 C375.09,96.1517 366.848,87.9087 356.682,87.9087 L356,87.9227 L356,92.6827 C363.908,92.6827 370.318,99.0927 370.318,106.9997 L375.076,106.9997 Z M385.992,106.9997 L386.002,106.3197 C386.002,90.1257 372.873,77.0007 356.682,77.0007 L356,77.0077 L356,81.7717 C369.932,81.7717 381.227,93.0677 381.227,106.9997 L385.992,106.9997 Z"
                fill="#000000" id="rss" />
            <g id="slices" transform="translate(47.000000, 9.000000)" />
        </g>
    </g>
</svg>